<svg width="100" height="100" viewBox="0 0 100 100" fill="none" xmlns="http://www.w3.org/2000/svg">
<path fill-rule="evenodd" clip-rule="evenodd" d="M50 100C77.6142 100 100 77.6142 100 50C100 22.3858 77.6142 0 50 0C22.3858 0 0 22.3858 0 50C0 77.6142 22.3858 100 50 100ZM95.1765 52.381H52.381V73.6032H79.3651V74.6032H79.192L83.9539 79.3651H84.413C90.6817 72.0258 94.6437 62.657 95.1765 52.381ZM77.7778 74.6032H52.381V79.3651H82.5397L77.7778 74.6032ZM47.619 73.6032V52.381H4.82349C5.3416 62.3728 9.10181 71.507 15.0723 78.7516L19.2207 74.6032H19.0476V73.6032H47.619ZM20.6349 74.6032H47.619V79.3651H15.873L20.6349 74.6032ZM52.381 47.619H95.1765C94.6437 37.343 90.6817 27.9742 84.413 20.6349H83.9539L78.6047 25.9841H79.3651V26.9841H52.381V47.619ZM77.7778 25.3968L78.3651 25.9841H52.381V20.6349H82.5397L77.7778 25.3968ZM47.619 20.6349V25.9841H21.0491L15.6999 20.6349H47.619ZM14.9942 21.3434L20.6349 26.9841H47.619V47.619H4.82349C5.33933 37.6708 9.06904 28.5728 14.9942 21.3434ZM20.3033 84.127C28.2494 91.0474 38.6353 95.2381 50 95.2381C61.3647 95.2381 71.7506 91.0474 79.6967 84.127H20.3033ZM50 4.7619C61.3647 4.7619 71.7506 8.95261 79.6967 15.873H20.3033C28.2494 8.95261 38.6353 4.7619 50 4.7619Z" fill="url(#paint0_linear)"/>
<defs>
<linearGradient id="paint0_linear" x1="50" y1="0" x2="50" y2="100" gradientUnits="userSpaceOnUse">
<stop stop-color="#FCE38A"/>
<stop offset="1" stop-color="#F38181"/>
</linearGradient>
</defs>
</svg>
